<?xml version="1.0" standalone="no"?><!DOCTYPE svg PUBLIC "-//W3C//DTD SVG 1.1//EN" "http://www.w3.org/Graphics/SVG/1.1/DTD/svg11.dtd"><svg t="1632304369475" class="icon" viewBox="0 0 1024 1024" version="1.1" xmlns="http://www.w3.org/2000/svg" p-id="18016" xmlns:xlink="http://www.w3.org/1999/xlink" width="200" height="200"><defs><style type="text/css"></style></defs><path d="M512 938.666667c235.648 0 426.666667-191.018667 426.666667-426.666667S747.648 85.333333 512 85.333333 85.333333 276.352 85.333333 512s191.018667 426.666667 426.666667 426.666667zM372.48 458.666667A149.418667 149.418667 0 0 1 512 362.666667c46.634667 0 86.912 19.797333 114.048 52.48a32 32 0 1 0 49.237333-40.96C635.904 326.826667 577.578667 298.666667 512 298.666667a212.949333 212.949333 0 0 0-170.666667 85.333333v-32a32 32 0 0 0-64 0v138.666667c0 17.664 14.336 32 32 32H426.666667a32 32 0 0 0 0-64H372.48z m310.186667 213.333333V640a213.888 213.888 0 0 1-333.696 10.112 32 32 0 1 1 48.725333-41.472 149.888 149.888 0 0 0 249.258667-32.64H597.333333a32 32 0 0 1 0-64h117.333334a32 32 0 0 1 32 32v128a32 32 0 0 1-64 0z" p-id="18017" fill="#f60"></path></svg>